<svg width="519" height="511" viewBox="0 0 519 511" fill="none" xmlns="http://www.w3.org/2000/svg">
<path d="M207.333 1.79999C104.4 7.93333 36 27.9333 11.4667 59C2.53333 70.2 0.133334 78.3333 0.266667 97C0.266667 110.6 0.933334 115.4 4.53333 128.733C16.5333 173.933 52.8 246.6 106.4 332.333C142.4 389.933 204 481.267 213.733 491.4C234 512.467 269.067 516.333 293.867 500.333C305.467 493 310 487 354.267 421.667C440.4 294.2 496 193.4 512.667 134.067C525.733 87.8 518.933 62.4667 488.267 42.0667C456 20.6 392.933 6.46666 308.667 1.66666C281.867 0.199994 233.6 0.199994 207.333 1.79999ZM288.4 87.6667C294.667 90.3333 359.733 154.733 363.6 162.2C370.533 175.533 360.133 192.333 345.067 192.333C341.867 192.333 337.867 191.667 336.267 190.867C334.667 190.067 326.267 182.467 317.733 173.933L302 158.333V212.6C302 247.8 301.467 269.4 300.533 273.933C296 295.267 279.333 312.867 258.667 318.2C224.667 327.133 191.733 305.8 185.733 271C179.2 233.267 213.733 197.933 251.2 203.933L259.2 205.133L259.6 152.2C260 92.0667 259.6 94.7333 271.333 88.6C278.267 85.1333 281.6 85 288.4 87.6667Z" fill="#844CCC"/>
</svg>
