<svg width="310" height="310" viewBox="0 0 310 310" fill="none" xmlns="http://www.w3.org/2000/svg">
<g clip-path="url(#clip0_203_72)">
<path d="M179.732 251.55C179.732 211.954 211.828 179.868 251.414 179.868C258.112 179.868 264.587 180.863 270.743 182.574V19.59H290.072V0.261H270.743V0C270.743 0 113.916 0.193 58.17 0.251C47.239 0.251 38.792 8.466 38.792 19.629V309.528H209.372C191.447 296.5 179.732 275.422 179.732 251.55Z" fill="#61DAFB"/>
<path d="M290.074 0.270996C279.404 0.270996 270.745 8.93 270.745 19.6V38.929H290.074C300.744 38.929 309.403 30.27 309.403 19.6C309.403 8.92 300.744 0.270996 290.074 0.270996Z" fill="#61B1FB"/>
<path d="M251.415 193.563C283.443 193.563 309.403 219.522 309.403 251.551C309.403 283.56 283.444 309.539 251.415 309.539C219.406 309.539 193.427 283.561 193.427 251.551C193.428 219.522 219.407 193.563 251.415 193.563Z" fill="#61DAFB"/>
<path d="M182.439 270.879H19.465C8.79499 270.879 0.135986 279.538 0.135986 290.208C0.135986 300.878 8.79499 309.537 19.465 309.537H209.394C196.482 300.163 186.855 286.633 182.439 270.879Z" fill="#61B1FB"/>
<path d="M217.57 137.15C220.817 137.15 222.402 134.318 222.402 131.583C222.402 128.751 220.74 126.016 217.57 126.016H199.13C195.544 126.016 193.525 129.002 193.525 132.298V177.615C193.525 181.655 195.825 183.897 198.928 183.897C202.031 183.897 204.331 181.655 204.331 177.615V165.177H215.484C218.954 165.177 220.674 162.345 220.674 159.533C220.674 156.779 218.954 154.044 215.484 154.044H204.331V137.15C204.329 137.15 217.57 137.15 217.57 137.15ZM155.243 126.017H141.751C138.088 126.017 135.488 128.53 135.488 132.26V177.655C135.488 182.284 139.228 183.734 141.925 183.734H156.064C172.822 183.734 183.888 172.707 183.888 155.687C183.88 137.701 173.48 126.017 155.243 126.017ZM155.9 172.542H147.666V137.208H155.088C166.299 137.208 171.189 144.737 171.189 155.126C171.189 164.839 166.396 172.542 155.9 172.542ZM106.466 126.017H93.0999C89.3209 126.017 87.2339 128.51 87.2339 132.299V177.616C87.2339 181.656 89.6309 183.898 92.8779 183.898C96.1249 183.898 98.5609 181.656 98.5609 177.616V164.395H106.921C117.262 164.395 125.796 157.069 125.796 145.288C125.795 133.758 117.561 126.017 106.466 126.017ZM106.244 153.764H98.5609V136.658H106.244C110.999 136.658 114.024 140.36 114.024 145.211C114.014 150.043 110.999 153.764 106.244 153.764Z" fill="white"/>
<path d="M251 260.304C255.922 260.304 259.913 256.395 259.913 251.574C259.913 246.752 255.922 242.844 251 242.844C246.077 242.844 242.087 246.752 242.087 251.574C242.087 256.395 246.077 260.304 251 260.304Z" fill="white"/>
<path d="M90.24 202.3H95.36V203.72H90.24V208.6H96.52V210H88.52V196.22H96.34L96.14 197.66H90.24V202.3ZM99.1122 210L102.992 204.44L99.5722 199.46H101.572L104.012 203.38L106.472 199.46H108.412L104.992 204.36L108.872 210H106.832L103.932 205.48L101.032 210H99.1122ZM120.364 209.46C120.004 209.7 119.564 209.887 119.044 210.02C118.538 210.153 118.031 210.22 117.524 210.22C116.418 210.22 115.551 209.933 114.924 209.36C114.298 208.773 113.984 208.007 113.984 207.06V200.78H111.564V199.46H113.984V197.08L115.664 196.88V199.46H119.324L119.104 200.78H115.664V207.04C115.664 207.64 115.824 208.087 116.144 208.38C116.464 208.673 116.978 208.82 117.684 208.82C118.404 208.82 119.078 208.653 119.704 208.32L120.364 209.46ZM131.097 199.24C131.523 199.24 132.017 199.313 132.577 199.46L132.337 203.04H130.977V200.78H130.877C129.25 200.78 128.097 201.94 127.417 204.26V208.7H129.557V210H124.077V208.7H125.737V200.76H124.077V199.46H126.997L127.317 201.96C127.743 201.053 128.25 200.373 128.837 199.92C129.437 199.467 130.19 199.24 131.097 199.24ZM143.529 207.7C143.529 208.113 143.595 208.42 143.729 208.62C143.862 208.807 144.082 208.947 144.389 209.04L143.969 210.24C142.942 210.107 142.302 209.607 142.049 208.74C141.675 209.22 141.202 209.587 140.629 209.84C140.069 210.093 139.442 210.22 138.749 210.22C137.695 210.22 136.862 209.927 136.249 209.34C135.649 208.753 135.349 207.967 135.349 206.98C135.349 205.9 135.769 205.067 136.609 204.48C137.462 203.893 138.682 203.6 140.269 203.6H141.829V202.74C141.829 201.993 141.615 201.46 141.189 201.14C140.762 200.807 140.142 200.64 139.329 200.64C138.529 200.64 137.615 200.82 136.589 201.18L136.129 199.9C137.369 199.46 138.522 199.24 139.589 199.24C140.869 199.24 141.842 199.54 142.509 200.14C143.189 200.74 143.529 201.573 143.529 202.64V207.7ZM139.169 208.96C139.689 208.96 140.182 208.827 140.649 208.56C141.129 208.293 141.522 207.927 141.829 207.46V204.76H140.309C139.189 204.76 138.382 204.947 137.889 205.32C137.395 205.693 137.149 206.24 137.149 206.96C137.149 208.293 137.822 208.96 139.169 208.96ZM152.741 208.78C153.661 208.78 154.574 208.473 155.481 207.86L156.281 208.96C155.841 209.347 155.294 209.653 154.641 209.88C153.988 210.107 153.354 210.22 152.741 210.22C151.181 210.22 149.961 209.733 149.081 208.76C148.214 207.773 147.781 206.447 147.781 204.78C147.781 203.727 147.974 202.78 148.361 201.94C148.761 201.1 149.334 200.44 150.081 199.96C150.828 199.48 151.714 199.24 152.741 199.24C154.101 199.24 155.274 199.653 156.261 200.48L155.441 201.58C154.521 200.967 153.614 200.66 152.721 200.66C151.774 200.66 151.014 201.013 150.441 201.72C149.881 202.413 149.601 203.433 149.601 204.78C149.601 206.127 149.881 207.133 150.441 207.8C151.014 208.453 151.781 208.78 152.741 208.78ZM168.333 209.46C167.973 209.7 167.533 209.887 167.013 210.02C166.506 210.153 166 210.22 165.493 210.22C164.386 210.22 163.52 209.933 162.893 209.36C162.266 208.773 161.953 208.007 161.953 207.06V200.78H159.533V199.46H161.953V197.08L163.633 196.88V199.46H167.293L167.073 200.78H163.633V207.04C163.633 207.64 163.793 208.087 164.113 208.38C164.433 208.673 164.946 208.82 165.653 208.82C166.373 208.82 167.046 208.653 167.673 208.32L168.333 209.46ZM175.965 199.24C177.419 199.24 178.532 199.733 179.305 200.72C180.092 201.693 180.485 203.027 180.485 204.72C180.485 206.373 180.085 207.707 179.285 208.72C178.499 209.72 177.385 210.22 175.945 210.22C174.492 210.22 173.372 209.733 172.585 208.76C171.799 207.773 171.405 206.433 171.405 204.74C171.405 203.073 171.799 201.74 172.585 200.74C173.385 199.74 174.512 199.24 175.965 199.24ZM175.965 200.62C175.045 200.62 174.359 200.96 173.905 201.64C173.452 202.32 173.225 203.353 173.225 204.74C173.225 206.127 173.445 207.16 173.885 207.84C174.339 208.507 175.025 208.84 175.945 208.84C176.865 208.84 177.545 208.507 177.985 207.84C178.439 207.16 178.665 206.12 178.665 204.72C178.665 203.333 178.439 202.307 177.985 201.64C177.545 200.96 176.872 200.62 175.965 200.62ZM191.058 199.24C191.484 199.24 191.978 199.313 192.538 199.46L192.298 203.04H190.938V200.78H190.838C189.211 200.78 188.058 201.94 187.378 204.26V208.7H189.518V210H184.038V208.7H185.698V200.76H184.038V199.46H186.958L187.278 201.96C187.704 201.053 188.211 200.373 188.798 199.92C189.398 199.467 190.151 199.24 191.058 199.24Z" fill="white"/>
</g>
<path d="M250.826 270.397C277.24 270.397 298.652 262.389 298.652 252.511C298.652 242.633 277.24 234.625 250.826 234.625C224.412 234.625 203 242.633 203 252.511C203 262.389 224.412 270.397 250.826 270.397Z" stroke="white" stroke-width="3"/>
<path d="M235.012 261.454C248.219 283.859 266.005 298.018 274.739 293.079C283.473 288.14 279.847 265.973 266.641 243.568C253.434 221.163 235.647 207.004 226.913 211.943C218.179 216.882 221.805 239.049 235.012 261.454Z" stroke="white" stroke-width="3"/>
<path d="M235.012 243.568C221.805 265.973 218.179 288.14 226.913 293.079C235.647 298.018 253.434 283.859 266.64 261.454C279.847 239.049 283.473 216.882 274.739 211.943C266.005 207.004 248.218 221.163 235.012 243.568Z" stroke="white" stroke-width="3"/>
<defs>
<clipPath id="clip0_203_72">
<rect width="309.539" height="309.539" fill="white"/>
</clipPath>
</defs>
</svg>
